<?xml version="1.0" encoding="UTF-8" standalone="no"?>
<!DOCTYPE svg PUBLIC "-//W3C//DTD SVG 1.1//EN"
 "http://www.w3.org/Graphics/SVG/1.1/DTD/svg11.dtd">
<!-- Generated by graphviz version 2.38.0 (20140413.2041)
 -->
<!-- Title: G Pages: 1 -->
<svg width="331pt" height="222pt"
 viewBox="0.00 0.00 331.39 222.00" xmlns="http://www.w3.org/2000/svg" xmlns:xlink="http://www.w3.org/1999/xlink">
<g id="graph0" class="graph" transform="scale(1 1) rotate(0) translate(4 218)">
<title>G</title>
<polygon fill="white" stroke="none" points="-4,4 -4,-218 327.391,-218 327.391,4 -4,4"/>
<g id="clust1" class="cluster"><title>cluster_Global</title>
<path fill="none" stroke="gray" d="M161.391,-8C161.391,-8 303.391,-8 303.391,-8 309.391,-8 315.391,-14 315.391,-20 315.391,-20 315.391,-194 315.391,-194 315.391,-200 309.391,-206 303.391,-206 303.391,-206 161.391,-206 161.391,-206 155.391,-206 149.391,-200 149.391,-194 149.391,-194 149.391,-20 149.391,-20 149.391,-14 155.391,-8 161.391,-8"/>
<text text-anchor="middle" x="232.391" y="-193.2" font-family="Times,serif" font-size="11.00" fill="gray">Global</text>
</g>
<g id="clust2" class="cluster"><title>cluster_\SierraKomodo</title>
<path fill="none" stroke="gray" d="M169.391,-16C169.391,-16 295.391,-16 295.391,-16 301.391,-16 307.391,-22 307.391,-28 307.391,-28 307.391,-166 307.391,-166 307.391,-172 301.391,-178 295.391,-178 295.391,-178 169.391,-178 169.391,-178 163.391,-178 157.391,-172 157.391,-166 157.391,-166 157.391,-28 157.391,-28 157.391,-22 163.391,-16 169.391,-16"/>
<text text-anchor="middle" x="232.391" y="-165.2" font-family="Times,serif" font-size="11.00" fill="gray">SierraKomodo</text>
</g>
<g id="clust3" class="cluster"><title>cluster_\SierraKomodo\INIController</title>
<path fill="none" stroke="gray" d="M177.391,-24C177.391,-24 287.391,-24 287.391,-24 293.391,-24 299.391,-30 299.391,-36 299.391,-36 299.391,-138 299.391,-138 299.391,-144 293.391,-150 287.391,-150 287.391,-150 177.391,-150 177.391,-150 171.391,-150 165.391,-144 165.391,-138 165.391,-138 165.391,-36 165.391,-36 165.391,-30 171.391,-24 177.391,-24"/>
<text text-anchor="middle" x="232.391" y="-137.2" font-family="Times,serif" font-size="11.00" fill="gray">INIController</text>
</g>
<!-- \\SierraKomodo\\INIController\\INILibException -->
<g id="node1" class="node"><title>\\SierraKomodo\\INIController\\INILibException</title>
<polygon fill="none" stroke="black" points="291.391,-122 173.391,-122 173.391,-86 291.391,-86 291.391,-122"/>
<text text-anchor="middle" x="232.391" y="-101.2" font-family="Courier,monospace" font-size="11.00">INILibException</text>
</g>
<!-- \\Exception -->
<g id="node3" class="node"><title>\\Exception</title>
<ellipse fill="none" stroke="black" cx="50.6955" cy="-104" rx="50.8918" ry="18"/>
<text text-anchor="middle" x="50.6955" y="-100.3" font-family="Times,serif" font-size="14.00" fill="gray">xception</text>
</g>
<!-- \\SierraKomodo\\INIController\\INILibException&#45;&gt;\\Exception -->
<g id="edge1" class="edge"><title>\\SierraKomodo\\INIController\\INILibException&#45;&gt;\\Exception</title>
<path fill="none" stroke="black" d="M173.049,-104C153.414,-104 131.48,-104 111.717,-104"/>
<polygon fill="none" stroke="black" points="111.604,-100.5 101.604,-104 111.604,-107.5 111.604,-100.5"/>
</g>
<!-- \\SierraKomodo\\INIController\\INILib -->
<g id="node2" class="node"><title>\\SierraKomodo\\INIController\\INILib</title>
<polygon fill="none" stroke="black" points="260.891,-68 203.891,-68 203.891,-32 260.891,-32 260.891,-68"/>
<text text-anchor="middle" x="232.391" y="-47.2" font-family="Courier,monospace" font-size="11.00">INILib</text>
</g>
</g>
</svg>
