<?xml version="1.0" encoding="UTF-8" standalone="no"?>
<!DOCTYPE svg PUBLIC "-//W3C//DTD SVG 1.1//EN"
 "http://www.w3.org/Graphics/SVG/1.1/DTD/svg11.dtd">
<!-- Generated by graphviz version 2.38.0 (20140413.2041)
 -->
<!-- Title: G Pages: 1 -->
<svg width="353pt" height="222pt"
 viewBox="0.00 0.00 353.00 222.00" xmlns="http://www.w3.org/2000/svg" xmlns:xlink="http://www.w3.org/1999/xlink">
<g id="graph0" class="graph" transform="scale(1 1) rotate(0) translate(4 218)">
<title>G</title>
<polygon fill="white" stroke="none" points="-4,4 -4,-218 349,-218 349,4 -4,4"/>
<g id="clust1" class="cluster"><title>cluster_Global</title>
<path fill="none" stroke="gray" d="M20,-8C20,-8 325,-8 325,-8 331,-8 337,-14 337,-20 337,-20 337,-194 337,-194 337,-200 331,-206 325,-206 325,-206 20,-206 20,-206 14,-206 8,-200 8,-194 8,-194 8,-20 8,-20 8,-14 14,-8 20,-8"/>
<text text-anchor="middle" x="172.5" y="-193.2" font-family="Times,serif" font-size="11.00" fill="gray">Global</text>
</g>
<g id="clust2" class="cluster"><title>cluster_\SierraKomodo</title>
<path fill="none" stroke="gray" d="M28,-16C28,-16 317,-16 317,-16 323,-16 329,-22 329,-28 329,-28 329,-166 329,-166 329,-172 323,-178 317,-178 317,-178 28,-178 28,-178 22,-178 16,-172 16,-166 16,-166 16,-28 16,-28 16,-22 22,-16 28,-16"/>
<text text-anchor="middle" x="172.5" y="-165.2" font-family="Times,serif" font-size="11.00" fill="gray">SierraKomodo</text>
</g>
<g id="clust3" class="cluster"><title>cluster_\SierraKomodo\INIController</title>
<path fill="none" stroke="gray" d="M36,-24C36,-24 309,-24 309,-24 315,-24 321,-30 321,-36 321,-36 321,-138 321,-138 321,-144 315,-150 309,-150 309,-150 36,-150 36,-150 30,-150 24,-144 24,-138 24,-138 24,-36 24,-36 24,-30 30,-24 36,-24"/>
<text text-anchor="middle" x="172.5" y="-137.2" font-family="Times,serif" font-size="11.00" fill="gray">INIController</text>
</g>
<!-- \\SierraKomodo\\INIController\\StaticController -->
<g id="node1" class="node"><title>\\SierraKomodo\\INIController\\StaticController</title>
<polygon fill="none" stroke="black" points="313,-122 188,-122 188,-86 313,-86 313,-122"/>
<text text-anchor="middle" x="250.5" y="-101.2" font-family="Courier,monospace" font-size="11.00">StaticController</text>
</g>
<!-- \\SierraKomodo\\INIController\\Controller -->
<g id="node2" class="node"><title>\\SierraKomodo\\INIController\\Controller</title>
<polygon fill="none" stroke="black" points="116,-95 32,-95 32,-59 116,-59 116,-95"/>
<text text-anchor="middle" x="74" y="-74.2" font-family="Courier,monospace" font-size="11.00">Controller</text>
</g>
<!-- \\SierraKomodo\\INIController\\StaticController&#45;&gt;\\SierraKomodo\\INIController\\Controller -->
<g id="edge1" class="edge"><title>\\SierraKomodo\\INIController\\StaticController&#45;&gt;\\SierraKomodo\\INIController\\Controller</title>
<path fill="none" stroke="black" d="M187.978,-94.4808C167.766,-91.3535 145.532,-87.9132 126.173,-84.9179"/>
<polygon fill="none" stroke="black" points="126.46,-81.4207 116.043,-83.3504 125.39,-88.3384 126.46,-81.4207"/>
</g>
<!-- \\SierraKomodo\\INIController\\ObjectController -->
<g id="node3" class="node"><title>\\SierraKomodo\\INIController\\ObjectController</title>
<polygon fill="none" stroke="black" points="313,-68 188,-68 188,-32 313,-32 313,-68"/>
<text text-anchor="middle" x="250.5" y="-47.2" font-family="Courier,monospace" font-size="11.00">ObjectController</text>
</g>
<!-- \\SierraKomodo\\INIController\\ObjectController&#45;&gt;\\SierraKomodo\\INIController\\Controller -->
<g id="edge2" class="edge"><title>\\SierraKomodo\\INIController\\ObjectController&#45;&gt;\\SierraKomodo\\INIController\\Controller</title>
<path fill="none" stroke="black" d="M187.978,-59.5192C167.766,-62.6465 145.532,-66.0868 126.173,-69.0821"/>
<polygon fill="none" stroke="black" points="125.39,-65.6616 116.043,-70.6496 126.46,-72.5793 125.39,-65.6616"/>
</g>
</g>
</svg>
